<?xml version="1.0" encoding="UTF-8" standalone="no"?>
<!-- Created with Inkscape (http://www.inkscape.org/) -->

<svg
   xmlns:dc="http://purl.org/dc/elements/1.1/"
   xmlns:cc="http://creativecommons.org/ns#"
   xmlns:rdf="http://www.w3.org/1999/02/22-rdf-syntax-ns#"
   xmlns:svg="http://www.w3.org/2000/svg"
   xmlns="http://www.w3.org/2000/svg"
   xmlns:sodipodi="http://sodipodi.sourceforge.net/DTD/sodipodi-0.dtd"
   xmlns:inkscape="http://www.inkscape.org/namespaces/inkscape"
   id="svg3039"
   version="1.1"
   inkscape:version="0.48.5 r"
   width="420"
   height="420"
   sodipodi:docname="iinm.png">
  <metadata
     id="metadata3045">
    <rdf:RDF>
      <cc:Work
         rdf:about="">
        <dc:format>image/svg+xml</dc:format>
        <dc:type
           rdf:resource="http://purl.org/dc/dcmitype/StillImage" />
        <dc:title></dc:title>
      </cc:Work>
    </rdf:RDF>
  </metadata>
  <defs
     id="defs3043" />
  <sodipodi:namedview
     pagecolor="#ffffff"
     bordercolor="#666666"
     borderopacity="1"
     objecttolerance="10"
     gridtolerance="10"
     guidetolerance="10"
     inkscape:pageopacity="0"
     inkscape:pageshadow="2"
     inkscape:window-width="1098"
     inkscape:window-height="639"
     id="namedview3041"
     showgrid="false"
     inkscape:zoom="0.56190476"
     inkscape:cx="-22.542375"
     inkscape:cy="177.77966"
     inkscape:window-x="87"
     inkscape:window-y="0"
     inkscape:window-maximized="0"
     inkscape:current-layer="svg3039" />
  <path
     style="fill:#4896d5;fill-opacity:1"
     d="m 104.5,315.5 0,-70 -35,0 -35,0 0,-35.5 0,-35.5 70,0 70,0 0,-34.5 0,-34.5 -35,0 -35,0 0,-35.5 0,-35.5 35.5,0 35.5,0 0,35 0,35 34.5,0 34.5,0 0,-35 0,-35 35.5,0 35.5,0 0,35.5 0,35.5 -35,0 -35,0 0,34.5 0,34.5 70,0 70,0 0,35.5 0,35.5 -35,0 -35,0 0,70 0,70 -105.5,0 -105.5,0 0,-70 z m 140,-70.5 0,-69.5 -34.5,0 -34.5,0 0,69.5 0,69.5 34.5,0 34.5,0 0,-69.5 z"
     id="path3049"
     inkscape:connector-curvature="0" />
</svg>
